<?xml version="1.0" encoding="UTF-8" standalone="no"?>
<!-- Created with Inkscape (http://www.inkscape.org/) -->

<svg
   xmlns:dc="http://purl.org/dc/elements/1.1/"
   xmlns:cc="http://creativecommons.org/ns#"
   xmlns:rdf="http://www.w3.org/1999/02/22-rdf-syntax-ns#"
   xmlns:svg="http://www.w3.org/2000/svg"
   xmlns="http://www.w3.org/2000/svg"
   xmlns:sodipodi="http://sodipodi.sourceforge.net/DTD/sodipodi-0.dtd"
   xmlns:inkscape="http://www.inkscape.org/namespaces/inkscape"
   width="210mm"
   height="297mm"
   viewBox="0 0 210 297"
   version="1.1"
   id="svg8"
   inkscape:version="0.92.3 (2405546, 2018-03-11)"
   sodipodi:docname="макет.svg">
  <defs
     id="defs2" />
  <sodipodi:namedview
     id="base"
     pagecolor="#ffffff"
     bordercolor="#666666"
     borderopacity="1.0"
     inkscape:pageopacity="0.0"
     inkscape:pageshadow="2"
     inkscape:zoom="0.24748737"
     inkscape:cx="608.17801"
     inkscape:cy="930.68032"
     inkscape:document-units="mm"
     inkscape:current-layer="layer1"
     showgrid="false"
     inkscape:window-width="1920"
     inkscape:window-height="1017"
     inkscape:window-x="-8"
     inkscape:window-y="-8"
     inkscape:window-maximized="1"
     inkscape:snap-nodes="false">
    <sodipodi:guide
       position="0,0"
       orientation="0,793.70079"
       id="guide861"
       inkscape:locked="false" />
    <sodipodi:guide
       position="210,0"
       orientation="-1122.5197,0"
       id="guide863"
       inkscape:locked="false" />
    <sodipodi:guide
       position="210,297"
       orientation="0,-793.70079"
       id="guide865"
       inkscape:locked="false" />
    <sodipodi:guide
       position="0,297"
       orientation="1122.5197,0"
       id="guide867"
       inkscape:locked="false" />
  </sodipodi:namedview>
  <metadata
     id="metadata5">
    <rdf:RDF>
      <cc:Work
         rdf:about="">
        <dc:format>image/svg+xml</dc:format>
        <dc:type
           rdf:resource="http://purl.org/dc/dcmitype/StillImage" />
        <dc:title />
      </cc:Work>
    </rdf:RDF>
  </metadata>
  <g
     inkscape:label="Layer 1"
     inkscape:groupmode="layer"
     id="layer1">
    <rect
       style="opacity:0.5;fill:#803300;fill-opacity:1;fill-rule:nonzero;stroke:#000000;stroke-width:1.69517314;stroke-linecap:round;stroke-linejoin:bevel;stroke-miterlimit:4;stroke-dasharray:5.08551953, 5.08551953;stroke-dashoffset:0;stroke-opacity:1"
       id="rect831"
       width="1323.6403"
       height="170.05676"
       x="-567.0777"
       y="-268.87894" />
    <rect
       style="opacity:0.5;fill:#917c6f;fill-opacity:1;fill-rule:nonzero;stroke:#000000;stroke-width:3.44247484;stroke-linecap:round;stroke-linejoin:bevel;stroke-miterlimit:4;stroke-dasharray:10.32742419, 10.32742419;stroke-dashoffset:0;stroke-opacity:1"
       id="rect833"
       width="1321.1368"
       height="1395.2201"
       x="-566.85358"
       y="-97.496437" />
    <rect
       style="opacity:0.5;fill:#ff7f2a;fill-opacity:1;fill-rule:nonzero;stroke:#000000;stroke-width:1.66264164;stroke-linecap:round;stroke-linejoin:bevel;stroke-miterlimit:4;stroke-dasharray:4.98792494, 4.98792494;stroke-dashoffset:0;stroke-opacity:1"
       id="rect835"
       width="1322.0825"
       height="69.62587"
       x="-570.44727"
       y="1299.8519" />
    <rect
       style="opacity:0.5;fill:#ff0000;fill-opacity:1;fill-rule:nonzero;stroke:#000000;stroke-width:1.66264164;stroke-linecap:round;stroke-linejoin:bevel;stroke-miterlimit:4;stroke-dasharray:4.98792494, 4.98792494;stroke-dashoffset:0;stroke-opacity:1"
       id="rect857"
       width="80.886909"
       height="42.333332"
       x="671.91199"
       y="-268.8952" />
    <rect
       style="opacity:0.5;fill:#7fff2a;fill-opacity:1;fill-rule:nonzero;stroke:none;stroke-width:1.66264164;stroke-linecap:round;stroke-linejoin:bevel;stroke-miterlimit:4;stroke-dasharray:4.98792494, 4.98792494;stroke-dashoffset:0;stroke-opacity:1"
       id="rect876"
       width="74.839287"
       height="36.285713"
       x="674.93579"
       y="-265.87137" />
    <rect
       style="opacity:0.5;fill:#aad400;fill-opacity:1;fill-rule:nonzero;stroke:none;stroke-width:1.10912812;stroke-linecap:round;stroke-linejoin:bevel;stroke-miterlimit:4;stroke-dasharray:3.32738451, 3.32738451;stroke-dashoffset:0;stroke-opacity:1"
       id="rect942"
       width="931.33331"
       height="266.09521"
       x="-170.21899"
       y="-95.026161" />
    <g
       id="g910">
      <rect
         y="-98.089485"
         x="-567.44666"
         height="596.82806"
         width="394.23285"
         id="rect837"
         style="opacity:0.5;fill:#ff9955;fill-opacity:1;fill-rule:nonzero;stroke:#000000;stroke-width:1.86407936;stroke-linecap:round;stroke-linejoin:bevel;stroke-miterlimit:4;stroke-dasharray:5.59223806, 5.59223806;stroke-dashoffset:0;stroke-opacity:1" />
      <text
         id="text841"
         y="-200.41666"
         x="-544.28571"
         style="font-style:normal;font-variant:normal;font-weight:normal;font-stretch:normal;font-size:17.63888741px;line-height:1.25;font-family:sans-serif;-inkscape-font-specification:'sans-serif, Normal';font-variant-ligatures:normal;font-variant-caps:normal;font-variant-numeric:normal;text-align:start;letter-spacing:0px;word-spacing:0px;writing-mode:lr-tb;text-anchor:start;fill:#000000;fill-opacity:1;stroke:none;stroke-width:0.26458332"
         xml:space="preserve"><tspan
           style="stroke-width:0.26458332"
           y="-200.41666"
           x="-544.28571"
           id="tspan839"
           sodipodi:role="line">Header</tspan></text>
      <text
         id="text845"
         y="-69.636894"
         x="-560.91663"
         style="font-style:normal;font-variant:normal;font-weight:normal;font-stretch:normal;font-size:17.63888741px;line-height:1.25;font-family:sans-serif;-inkscape-font-specification:'sans-serif, Normal';font-variant-ligatures:normal;font-variant-caps:normal;font-variant-numeric:normal;text-align:start;letter-spacing:0px;word-spacing:0px;writing-mode:lr-tb;text-anchor:start;fill:#000000;fill-opacity:1;stroke:none;stroke-width:0.26458332"
         xml:space="preserve"><tspan
           style="stroke-width:0.26458332"
           y="-69.636894"
           x="-560.91663"
           id="tspan843"
           sodipodi:role="line">SideBar</tspan></text>
      <text
         id="text849"
         y="-74.928566"
         x="-156.48215"
         style="font-style:normal;font-variant:normal;font-weight:normal;font-stretch:normal;font-size:17.63888741px;line-height:1.25;font-family:sans-serif;-inkscape-font-specification:'sans-serif, Normal';font-variant-ligatures:normal;font-variant-caps:normal;font-variant-numeric:normal;text-align:start;letter-spacing:0px;word-spacing:0px;writing-mode:lr-tb;text-anchor:start;fill:#000000;fill-opacity:1;stroke:none;stroke-width:0.26458332"
         xml:space="preserve"><tspan
           style="stroke-width:0.26458332"
           y="-74.928566"
           x="-156.48215"
           id="tspan847"
           sodipodi:role="line">Content</tspan></text>
      <text
         id="text853"
         y="523.78571"
         x="-548.82141"
         style="font-style:normal;font-variant:normal;font-weight:normal;font-stretch:normal;font-size:17.63888741px;line-height:1.25;font-family:sans-serif;-inkscape-font-specification:'sans-serif, Normal';font-variant-ligatures:normal;font-variant-caps:normal;font-variant-numeric:normal;text-align:start;letter-spacing:0px;word-spacing:0px;writing-mode:lr-tb;text-anchor:start;fill:#d4ff2a;fill-opacity:1;stroke:none;stroke-width:0.26458332"
         xml:space="preserve"><tspan
           style="fill:#d4ff2a;stroke-width:0.26458332"
           y="523.78571"
           x="-548.82141"
           id="tspan851"
           sodipodi:role="line">Footer</tspan></text>
      <rect
         y="-267.49213"
         x="-107.89687"
         height="64.603279"
         width="339.76993"
         id="rect855"
         style="opacity:0.5;fill:#ff0000;fill-opacity:1;fill-rule:nonzero;stroke:#000000;stroke-width:2.07126832;stroke-linecap:round;stroke-linejoin:bevel;stroke-miterlimit:4;stroke-dasharray:6.21380511, 6.21380511;stroke-dashoffset:0;stroke-opacity:1" />
      <rect
         y="-152.34416"
         x="-364.67749"
         height="52.021667"
         width="872.22998"
         id="rect859"
         style="opacity:0.5;fill:#ff0000;fill-opacity:1;fill-rule:nonzero;stroke:none;stroke-width:11.31305218;stroke-linecap:round;stroke-linejoin:bevel;stroke-miterlimit:4;stroke-dasharray:33.93915735, 33.93915735;stroke-dashoffset:0;stroke-opacity:1" />
      <rect
         y="-260.89285"
         x="168.57739"
         height="48.17662"
         width="54.224236"
         id="rect874"
         style="opacity:0.5;fill:#7fff2a;fill-opacity:1;fill-rule:nonzero;stroke:none;stroke-width:1.66264164;stroke-linecap:round;stroke-linejoin:bevel;stroke-miterlimit:4;stroke-dasharray:4.98792494, 4.98792494;stroke-dashoffset:0;stroke-opacity:1" />
      <rect
         y="118.59524"
         x="-173.86905"
         height="70.303574"
         width="65.011902"
         id="rect878"
         style="opacity:0.5;fill:#7fff2a;fill-opacity:1;fill-rule:nonzero;stroke:none;stroke-width:1.66264164;stroke-linecap:round;stroke-linejoin:bevel;stroke-miterlimit:4;stroke-dasharray:4.98792494, 4.98792494;stroke-dashoffset:0;stroke-opacity:1" />
      <rect
         y="-143.72023"
         x="-329.59521"
         height="37.041668"
         width="100.54166"
         id="rect880"
         style="opacity:0.5;fill:#d4ff2a;fill-opacity:1;fill-rule:nonzero;stroke:none;stroke-width:1.66264164;stroke-linecap:round;stroke-linejoin:bevel;stroke-miterlimit:4;stroke-dasharray:4.98792494, 4.98792494;stroke-dashoffset:0;stroke-opacity:1" />
      <rect
         y="-144.85417"
         x="-182.56248"
         height="37.041668"
         width="100.54166"
         id="rect880-7"
         style="opacity:0.5;fill:#d4ff2a;fill-opacity:1;fill-rule:nonzero;stroke:none;stroke-width:1.66264164;stroke-linecap:round;stroke-linejoin:bevel;stroke-miterlimit:4;stroke-dasharray:4.98792499, 4.98792499;stroke-dashoffset:0;stroke-opacity:1" />
      <rect
         y="-144.09821"
         x="-33.639874"
         height="37.041668"
         width="100.54166"
         id="rect880-7-6"
         style="opacity:0.5;fill:#d4ff2a;fill-opacity:1;fill-rule:nonzero;stroke:none;stroke-width:1.66264164;stroke-linecap:round;stroke-linejoin:bevel;stroke-miterlimit:4;stroke-dasharray:4.98792504, 4.98792504;stroke-dashoffset:0;stroke-opacity:1" />
      <rect
         y="-141.83035"
         x="108.47917"
         height="37.041668"
         width="100.54166"
         id="rect880-7-6-1"
         style="opacity:0.5;fill:#d4ff2a;fill-opacity:1;fill-rule:nonzero;stroke:none;stroke-width:1.66264164;stroke-linecap:round;stroke-linejoin:bevel;stroke-miterlimit:4;stroke-dasharray:4.9879251, 4.9879251;stroke-dashoffset:0;stroke-opacity:1" />
      <rect
         y="-143.34225"
         x="243.0387"
         height="37.041668"
         width="100.54166"
         id="rect880-7-6-1-9"
         style="opacity:0.5;fill:#d4ff2a;fill-opacity:1;fill-rule:nonzero;stroke:none;stroke-width:1.66264164;stroke-linecap:round;stroke-linejoin:bevel;stroke-miterlimit:4;stroke-dasharray:4.98792515, 4.98792515;stroke-dashoffset:0;stroke-opacity:1" />
      <rect
         y="209.30952"
         x="-92.982132"
         height="163.28569"
         width="373.44049"
         id="rect953"
         style="opacity:0.5;fill:#803300;fill-opacity:1;fill-rule:nonzero;stroke:none;stroke-width:1.27415156;stroke-linecap:round;stroke-linejoin:bevel;stroke-miterlimit:4;stroke-dasharray:3.82245468, 3.82245468;stroke-dashoffset:0;stroke-opacity:1" />
      <rect
         y="210.06548"
         x="-93.738091"
         height="162.52975"
         width="190.5"
         id="rect955"
         style="opacity:0.5;fill:#00aa00;fill-opacity:1;fill-rule:nonzero;stroke:none;stroke-width:1.66264164;stroke-linecap:round;stroke-linejoin:bevel;stroke-miterlimit:4;stroke-dasharray:4.98792494, 4.98792494;stroke-dashoffset:0;stroke-opacity:1" />
      <rect
         y="215.35713"
         x="104.32143"
         height="145.14285"
         width="165.55357"
         id="rect957"
         style="opacity:0.5;fill:#918a6f;fill-opacity:1;fill-rule:nonzero;stroke:none;stroke-width:1.66264164;stroke-linecap:round;stroke-linejoin:bevel;stroke-miterlimit:4;stroke-dasharray:4.98792494, 4.98792494;stroke-dashoffset:0;stroke-opacity:1" />
      <text
         id="text961"
         y="-246.52977"
         x="-101.29762"
         style="font-style:normal;font-variant:normal;font-weight:normal;font-stretch:normal;font-size:17.63888741px;line-height:1.25;font-family:sans-serif;-inkscape-font-specification:'sans-serif, Normal';font-variant-ligatures:normal;font-variant-caps:normal;font-variant-numeric:normal;text-align:start;letter-spacing:0px;word-spacing:0px;writing-mode:lr-tb;text-anchor:start;fill:#000000;fill-opacity:1;stroke:none;stroke-width:0.26458332"
         xml:space="preserve"><tspan
           style="stroke-width:0.26458332"
           y="-246.52977"
           x="-101.29762"
           id="tspan959"
           sodipodi:role="line">bannerShop</tspan></text>
      <text
         id="text965"
         y="-110.45834"
         x="408.21429"
         style="font-style:normal;font-variant:normal;font-weight:normal;font-stretch:normal;font-size:17.63888741px;line-height:1.25;font-family:sans-serif;-inkscape-font-specification:'sans-serif, Normal';font-variant-ligatures:normal;font-variant-caps:normal;font-variant-numeric:normal;text-align:start;letter-spacing:0px;word-spacing:0px;writing-mode:lr-tb;text-anchor:start;fill:#000000;fill-opacity:1;stroke:none;stroke-width:0.26458332"
         xml:space="preserve"><tspan
           style="stroke-width:0.26458332"
           y="-110.45834"
           x="408.21429"
           id="tspan963"
           sodipodi:role="line">navigator</tspan></text>
      <text
         id="text969"
         y="-121.04166"
         x="-319.0119"
         style="font-style:normal;font-variant:normal;font-weight:normal;font-stretch:normal;font-size:17.63888741px;line-height:1.25;font-family:sans-serif;-inkscape-font-specification:'sans-serif, Normal';font-variant-ligatures:normal;font-variant-caps:normal;font-variant-numeric:normal;text-align:start;letter-spacing:0px;word-spacing:0px;writing-mode:lr-tb;text-anchor:start;fill:#000000;fill-opacity:1;stroke:none;stroke-width:0.26458332"
         xml:space="preserve"><tspan
           style="stroke-width:0.26458332"
           y="-121.04166"
           x="-319.0119"
           id="tspan967"
           sodipodi:role="line">.menu</tspan></text>
      <text
         id="text969-7"
         y="-122.27908"
         x="-169.09808"
         style="font-style:normal;font-variant:normal;font-weight:normal;font-stretch:normal;font-size:17.63888741px;line-height:1.25;font-family:sans-serif;-inkscape-font-specification:'sans-serif, Normal';font-variant-ligatures:normal;font-variant-caps:normal;font-variant-numeric:normal;text-align:start;letter-spacing:0px;word-spacing:0px;writing-mode:lr-tb;text-anchor:start;fill:#000000;fill-opacity:1;stroke:none;stroke-width:0.26458332"
         xml:space="preserve"><tspan
           style="stroke-width:0.26458332"
           y="-122.27908"
           x="-169.09808"
           id="tspan967-7"
           sodipodi:role="line">.menu</tspan></text>
      <text
         id="text969-7-6"
         y="-121.52312"
         x="-14.883791"
         style="font-style:normal;font-variant:normal;font-weight:normal;font-stretch:normal;font-size:17.63888741px;line-height:1.25;font-family:sans-serif;-inkscape-font-specification:'sans-serif, Normal';font-variant-ligatures:normal;font-variant-caps:normal;font-variant-numeric:normal;text-align:start;letter-spacing:0px;word-spacing:0px;writing-mode:lr-tb;text-anchor:start;fill:#000000;fill-opacity:1;stroke:none;stroke-width:0.26458332"
         xml:space="preserve"><tspan
           style="stroke-width:0.26458332"
           y="-121.52312"
           x="-14.883791"
           id="tspan967-7-3"
           sodipodi:role="line">.menu</tspan></text>
      <text
         id="text969-7-6-2"
         y="-118.49931"
         x="127.23525"
         style="font-style:normal;font-variant:normal;font-weight:normal;font-stretch:normal;font-size:17.63888741px;line-height:1.25;font-family:sans-serif;-inkscape-font-specification:'sans-serif, Normal';font-variant-ligatures:normal;font-variant-caps:normal;font-variant-numeric:normal;text-align:start;letter-spacing:0px;word-spacing:0px;writing-mode:lr-tb;text-anchor:start;fill:#000000;fill-opacity:1;stroke:none;stroke-width:0.26458332"
         xml:space="preserve"><tspan
           style="stroke-width:0.26458332"
           y="-118.49931"
           x="127.23525"
           id="tspan967-7-3-9"
           sodipodi:role="line">.menu</tspan></text>
      <text
         id="text969-7-6-2-8"
         y="-119.25527"
         x="261.79477"
         style="font-style:normal;font-variant:normal;font-weight:normal;font-stretch:normal;font-size:17.63888741px;line-height:1.25;font-family:sans-serif;-inkscape-font-specification:'sans-serif, Normal';font-variant-ligatures:normal;font-variant-caps:normal;font-variant-numeric:normal;text-align:start;letter-spacing:0px;word-spacing:0px;writing-mode:lr-tb;text-anchor:start;fill:#000000;fill-opacity:1;stroke:none;stroke-width:0.26458332"
         xml:space="preserve"><tspan
           style="stroke-width:0.26458332"
           y="-119.25527"
           x="261.79477"
           id="tspan967-7-3-9-5"
           sodipodi:role="line">.menu</tspan></text>
      <text
         id="text1045"
         y="-241.99405"
         x="168.57739"
         style="font-style:normal;font-variant:normal;font-weight:normal;font-stretch:normal;font-size:17.63888741px;line-height:1.25;font-family:sans-serif;-inkscape-font-specification:'sans-serif, Normal';font-variant-ligatures:normal;font-variant-caps:normal;font-variant-numeric:normal;text-align:start;letter-spacing:0px;word-spacing:0px;writing-mode:lr-tb;text-anchor:start;fill:#000000;fill-opacity:1;stroke:none;stroke-width:0.26458332"
         xml:space="preserve"><tspan
           style="stroke-width:0.26458332"
           y="-241.99405"
           x="168.57739"
           id="tspan1043"
           sodipodi:role="line">.arrow</tspan></text>
    </g>
    <path
       style="opacity:0.5;fill:#918a6f;fill-opacity:1;fill-rule:nonzero;stroke:none;stroke-width:1.66264164;stroke-linecap:round;stroke-linejoin:bevel;stroke-miterlimit:4;stroke-dasharray:4.98792494, 4.98792494;stroke-dashoffset:0;stroke-opacity:1"
       id="path1047"
       d="m -368.78299,-445.04559 c 2.09158,0.97554 4.10305,2.11246 6.0461,3.35645 1.59623,0.76031 3.10726,1.59734 4.51731,2.67097 1.3789,0.95427 2.78349,1.86121 4.15708,2.8231 1.87174,1.46024 4.03074,2.47513 6.04864,3.70959 3.51276,2.05433 7.07527,4.01283 10.69104,5.88082 3.71946,2.05928 7.52372,3.93245 11.40079,5.67412 2.90981,1.03963 5.57062,2.60022 8.3725,3.87982 3.56119,1.4137 7.13246,2.79678 10.69862,4.19746 3.23101,1.13027 6.34545,2.56243 9.51648,3.84659 2.56833,1.0691 5.11254,2.18908 7.59886,3.43829 2.03446,0.83314 4.03106,1.74371 5.91547,2.88311 1.62761,0.90321 3.33293,1.64796 4.9784,2.51865 1.98144,0.75668 3.825,1.81327 5.73331,2.72798 2.26446,0.90051 4.39317,2.11638 6.53523,3.27176 2.31152,1.18441 4.61991,2.34736 7.01865,3.3432 3.22059,1.42475 6.33534,3.07721 9.49808,4.62632 3.15805,1.36662 6.19323,3.0295 9.4548,4.14213 1.2084,0.59968 2.58679,0.74641 3.79522,1.33424 0.4785,0.23278 0.92845,0.52033 1.39828,0.77015 1.25403,0.91569 2.77594,1.22827 4.13884,1.9264 1.56195,0.7747 3.12276,1.59663 4.75507,2.21697 0.89092,0.35954 1.87928,0.26157 2.77404,0.59727 0.45661,0.17132 0.87745,0.42601 1.31773,0.63572 1.34857,0.75657 2.66387,1.59133 4.09065,2.19313 1.79753,0.89482 3.61466,1.74384 5.36691,2.72857 2.11485,1.04452 4.22444,2.0843 6.39641,3.00585 1.84623,1.21814 3.85797,2.10383 5.81677,3.10795 1.62498,0.69464 2.97786,1.86177 4.53399,2.67835 0.79553,0.65389 1.82119,0.7678 2.7335,1.13276 0.28621,0.11452 1.37334,0.75677 1.60837,0.89266 2.15902,1.09963 4.18776,2.42924 6.32077,3.57565 1.61148,0.78611 3.05474,1.81997 4.50403,2.86497 1.38628,0.91514 3.05443,1.14659 4.51709,1.897 1.71534,0.94123 3.56857,1.53869 5.41127,2.16432 1.91772,0.46974 3.7747,1.13208 5.65425,1.72974 1.85268,0.56603 3.71752,1.07916 5.5782,1.62206 1.64676,0.42656 3.32878,0.55594 4.9853,0.93149 1.36219,0.60293 2.8059,0.92448 4.20225,1.43182 1.37406,0.27329 2.63511,0.79796 3.89497,1.3888 1.26949,0.48455 2.38933,1.28047 3.56269,1.96442 1.16931,0.6608 2.40399,1.21576 3.46866,2.04317 1.11741,0.82529 2.46291,1.21309 3.68003,1.84028 1.24428,0.41034 2.31891,1.17636 3.5242,1.66777 1.5534,0.68562 2.97892,1.58182 4.44452,2.43679 1.63122,0.99409 3.17571,2.09502 4.7008,3.23932 1.01509,1.0749 2.32035,1.78406 3.42228,2.74923 1.37114,1.06323 2.66131,2.22396 4.02504,3.29422 1.4428,1.07831 2.75012,2.33762 4.28281,3.28848 1.25792,0.55521 2.41731,1.28937 3.54066,2.07685 0.86467,0.90564 1.9841,1.47863 2.91264,2.3069 1.00276,0.62691 1.96599,1.31705 2.84723,2.11363 1.09221,0.77996 2.04151,1.73053 2.918334,2.74158 1.180904,1.01526 2.372251,1.98147 3.490981,3.07197 1.409684,1.41865 2.820636,2.83684 4.357116,4.11835 0.991434,1.05471 2.292115,1.70455 3.438149,2.57265 1.418191,0.89191 2.744764,1.91315 4.124407,2.85909 1.16273,0.63693 2.202937,1.45161 3.444806,1.93897 0.853761,0.53644 1.880664,0.65251 2.770791,1.09971 0.456237,0.22924 0.87689,0.52343 1.320575,0.77611 1.004374,0.84251 2.14852,1.5036 3.384018,1.93828 1.169789,0.76475 2.502866,1.27177 3.52819,2.23155 1.072219,0.78467 2.079924,1.62401 3.010773,2.57871 1.17267,0.72853 2.04252,1.84393 3.1725,2.61567 0.868492,0.86389 2.065364,1.2111 3.081819,1.85261 1.232651,0.75375 2.232062,1.82147 3.452026,2.58326 1.120394,0.50366 2.206699,1.13011 3.125052,1.95085 0.446609,0.31163 1.166186,0.92118 1.772865,0.66038 0.256122,-0.1101 0.428707,-0.35825 0.660987,-0.51242 -3.099385,1.76416 -6.187355,3.54854 -9.298154,5.29248 -0.155128,0.087 0.294116,-0.20161 0.427366,-0.3194 0.64708,-0.57198 0.934011,-1.29175 1.184843,-2.09508 0.41668,-1.21107 0.682824,-2.47052 1.104758,-3.67863 0.51222,-1.44264 0.587338,-2.98352 0.884584,-4.47612 0.262027,-1.44417 0.48219,-2.88255 0.86165,-4.30151 0.359669,-1.31916 0.44033,-2.68555 0.495265,-4.04464 0.04251,-1.49582 0.03601,-2.99246 0.03446,-4.4887 -0.0026,-1.5134 -0.0045,-3.02679 -0.0055,-4.54018 0.08414,-1.61967 -0.06874,-3.21212 -0.29799,-4.81213 -0.08831,-1.67738 -0.711531,-3.15799 -1.415333,-4.64886 -0.737267,-1.64047 -1.245391,-3.36365 -1.90419,-5.0341 -0.880676,-1.43753 -1.516637,-2.97764 -2.065465,-4.56604 -0.484589,-1.63283 -1.044834,-3.24634 -1.734589,-4.80359 -0.586082,-1.30776 -0.750234,-2.72376 -0.848696,-4.137 0.09,-1.24783 -0.400254,-2.29831 -0.858597,-3.41157 -0.357389,-1.21277 -0.628222,-2.44427 -0.960861,-3.6662 0.466225,0.35941 -0.672359,-1.90007 -0.32258,-1.31743 0.08511,0.14176 0.06545,0.51895 0.214477,0.4473 9.805214,-4.71488 9.981609,-8.89582 9.648745,-4.66871 -0.08711,1.46527 0.305001,2.90989 0.652521,4.32107 0.445428,1.82581 1.123349,3.59633 1.767067,5.36202 0.462397,1.54549 1.172144,2.99786 1.631363,4.54277 0.561488,1.40433 1.116311,2.80469 1.623801,4.23211 0.50052,1.50019 0.904636,3.0343 1.300323,4.56594 0.46718,1.36674 1.225064,2.57969 1.640983,3.97375 0.341265,1.4641 0.724641,2.91074 0.947957,4.39918 0.205558,1.70672 0.213326,3.4304 0.232432,5.14723 0.0123,1.73537 -7.94e-4,3.47075 -7.94e-4,5.20618 7.94e-4,1.60904 0.0024,3.21807 0.003,4.82711 5.29e-4,1.51543 5.29e-4,3.03083 7.94e-4,4.54626 0.161925,1.29296 0.450247,2.56193 0.596373,3.85902 0.158877,1.32591 -0.01614,2.66542 -0.533244,3.89398 -0.705741,1.01357 -1.69477,1.76686 -2.429015,2.75677 -0.335015,0.3964 -0.424444,0.54827 -0.844037,0.86101 -0.435784,0.3248 -0.938053,0.60622 -1.40758,0.87993 -3.38536,1.9735 -6.770524,3.94732 -10.155785,5.92097 3.028339,-1.74434 6.050378,-3.49967 9.085013,-5.23303 0.187812,-0.10729 -0.355912,0.2468 -0.543631,0.35425 -3.404841,1.94876 -6.795527,3.92327 -10.233051,5.81377 -0.555012,0.30522 -1.450287,0.31329 -2.06302,0.38571 -1.490443,0.12896 -2.988331,0.11673 -4.482968,0.11528 -1.514943,-0.005 -3.029886,-0.0106 -4.544838,-0.0135 -1.79874,-0.0415 -3.493547,-0.76985 -5.259591,-1.10939 -1.612561,-0.26062 -3.148446,-0.79611 -4.772826,-1.01402 -1.31167,-0.40894 -2.614004,-0.80301 -3.857247,-1.39419 -1.387771,-0.59892 -2.880741,-0.86273 -4.33438,-1.25535 -2.366815,-0.75141 -4.689883,-1.63092 -7.04923,-2.40474 -2.771842,-1.05884 -5.569342,-2.0682 -8.464682,-2.73095 -3.26656,-0.94308 -6.4886,-2.04126 -9.71654,-3.11002 -2.20186,-0.84825 -4.57263,-0.97102 -6.79533,-1.71746 -1.94573,-0.68771 -3.9708,-1.11572 -6.00033,-1.46836 -2.34675,-0.3071 -4.62869,-0.95549 -6.94656,-1.41849 -2.06036,-0.65801 -4.21929,-0.85365 -6.31997,-1.31172 -2.10455,-0.37915 -4.22561,-0.61031 -6.33613,-0.95205 -2.24781,-0.3578 -4.5266,-0.45233 -6.79856,-0.51282 -1.76394,-0.0395 -3.23806,0.30353 -4.62785,-0.97379 0,0 9.53657,-5.99422 9.53657,-5.99422 v 0 c 1.21847,0.72715 2.83423,0.20537 4.17557,0.41765 2.29547,0.10395 4.59493,0.25021 6.86334,0.63357 2.12527,0.33065 4.26965,0.53559 6.3777,0.9748 2.11707,0.37521 4.22085,0.79571 6.30319,1.33713 2.30423,0.49987 4.59905,1.05208 6.93412,1.39541 2.06031,0.40055 4.11306,0.84436 6.09032,1.56268 2.24314,0.61664 4.57494,0.90202 6.74853,1.7807 3.2058,1.06664 6.39045,2.20906 9.67064,3.03175 2.899693,0.74875 5.718532,1.76427 8.525981,2.80199 2.351249,0.80188 4.694648,1.62867 7.088153,2.2996 1.495367,0.40725 3.030418,0.69673 4.431906,1.38954 1.201573,0.47726 2.432764,0.89292 3.699346,1.15991 1.603375,0.30398 3.153238,0.82455 4.767757,1.07643 1.707412,0.37767 3.38342,1.01282 5.157269,0.9044 1.513718,0.004 3.027444,0.0119 4.541168,0.008 1.461375,-0.0122 2.93347,-0.013 4.3767,-0.27205 0.557395,-0.13015 0.758307,-0.15512 1.289455,-0.36502 0.200721,-0.0794 0.774557,-0.37938 0.588497,-0.27001 -3.00895,1.76882 -6.042372,3.49568 -9.059857,5.24989 -0.184357,0.10719 0.373554,-0.20579 0.560332,-0.30869 3.382705,-1.97852 6.765411,-3.95702 10.148114,-5.93553 -16.353451,9.57266 -10.34752,5.97932 -6.702925,3.82482 0.810464,-0.90252 1.421279,-1.97326 2.460189,-2.66663 0.869037,-0.7471 0.938323,-2.10823 0.893432,-3.18934 -0.12677,-1.33866 -0.392634,-2.64694 -0.64161,-3.96666 1.4e-5,-1.5158 -3.1e-5,-3.03162 0.0011,-4.54742 0.0016,-1.61166 0.0042,-3.22334 0.0096,-4.83499 0.0048,-1.73181 0.0024,-3.46359 0.0019,-5.19539 -0.0069,-1.67105 -0.007,-3.34653 -0.176303,-5.01078 -0.185462,-1.44741 -0.558575,-2.84166 -0.883301,-4.25969 -0.375033,-1.42158 -1.175149,-2.62496 -1.645504,-4.00801 -0.366633,-1.50106 -0.790411,-2.99088 -1.244616,-4.4662 -0.534297,-1.44497 -1.04824,-2.88901 -1.674519,-4.29707 -0.409289,-1.53299 -1.124172,-2.95868 -1.554091,-4.48715 -0.666102,-1.79808 -1.361718,-3.60584 -1.834721,-5.46161 -0.382225,-1.50182 -0.837954,-3.03104 -0.845669,-4.58967 0.07644,-4.83637 10.227397,-10.65403 10.408901,-4.89635 0.307263,1.18213 0.630515,2.34897 0.896985,3.53906 0.48904,1.21725 1.107797,2.38131 1.016344,3.74389 0.06406,1.28603 0.152527,2.58593 0.664982,3.78594 0.688213,1.59362 1.252292,3.23925 1.72992,4.90871 0.544082,1.57666 1.238375,3.06861 2.079707,4.50954 0.632135,1.65335 1.132618,3.34962 1.856089,4.9685 0.753087,1.5848 1.478056,3.15616 1.572681,4.94564 0.23798,1.646 0.509514,3.27414 0.388107,4.94544 7.94e-4,1.51312 0.0021,3.02622 0.0051,4.53935 0.0026,1.50696 0.0095,3.01408 -0.01439,4.52091 -0.03467,1.42576 -0.07727,2.86083 -0.377164,4.26058 -0.348639,1.41925 -0.760053,2.79818 -0.902944,4.26323 -0.329737,1.5303 -0.471947,3.07451 -0.791202,4.60709 -0.438795,1.18549 -0.700439,2.40186 -1.165748,3.5819 -1.076241,5.51254 -5.522606,5.95437 -11.314703,8.95517 -1.183907,0.24757 -2.237581,-0.41704 -3.124393,-1.15308 -0.948505,-0.73004 -2.005618,-1.27961 -3.046793,-1.86384 -1.14762,-0.82991 -2.18743,-1.80218 -3.418666,-2.51941 -1.093568,-0.58809 -2.245915,-1.08582 -3.155444,-1.95855 -1.099757,-0.89504 -2.102557,-1.9049 -3.235669,-2.76217 -0.93598,-0.91215 -1.982814,-1.67312 -2.989887,-2.50143 -0.995535,-0.78851 -2.201251,-1.31849 -3.313226,-1.91968 -1.237208,-0.55039 -2.387561,-1.24539 -3.46564,-2.06566 -1.291106,-0.72736 -2.695993,-1.15043 -4.034115,-1.78189 -1.244695,-0.61036 -2.382658,-1.39702 -3.556601,-2.13066 -1.3585,-0.98644 -2.732868,-1.94871 -4.13068,-2.87919 -1.192088,-0.84527 -2.491184,-1.55155 -3.480474,-2.65182 -1.50344,-1.34326 -2.93544,-2.76024 -4.37236,-4.17396 -1.1619,-1.08487 -2.44471,-2.01628 -3.57477,-3.13296 -0.86506,-0.96051 -1.8071,-1.83864 -2.84633,-2.60985 -0.91359,-0.75316 -1.89529,-1.40136 -2.84763,-2.0996 -0.9381,-0.74869 -1.95263,-1.39795 -2.84041,-2.20998 -1.13836,-0.74729 -2.30352,-1.44084 -3.50634,-2.0809 -1.50545,-1.04862 -2.88514,-2.26711 -4.34541,-3.3774 -1.34046,-1.11416 -2.67494,-2.23102 -4.04779,-3.30616 -1.12609,-0.90498 -2.35809,-1.67854 -3.38158,-2.71198 -1.47034,-1.14286 -3.01903,-2.17043 -4.61843,-3.12578 -1.4374,-0.83614 -2.86118,-1.67228 -4.39578,-2.32471 -1.18083,-0.56915 -2.33609,-1.18758 -3.5484,-1.69021 -1.30931,-0.58195 -2.639,-1.14493 -3.79575,-2.00851 -1.0787,-0.72982 -2.26764,-1.29064 -3.39495,-1.94103 -1.16404,-0.64932 -2.24905,-1.43616 -3.51584,-1.88334 -1.2369,-0.57004 -2.54336,-0.89532 -3.83728,-1.30733 -1.3531,-0.48546 -2.75167,-0.83367 -4.10564,-1.31773 -1.67041,-0.34761 -3.38736,-0.46085 -5.01442,-1.011 -1.86121,-0.5566 -3.74135,-1.04568 -5.58855,-1.64973 -1.8751,-0.61672 -3.76312,-1.18504 -5.65615,-1.74273 -1.88257,-0.62285 -3.72283,-1.35059 -5.48861,-2.25893 -1.5743,-0.6363 -3.27345,-1.00933 -4.64906,-2.06259 -1.42181,-1.00414 -2.83967,-1.99845 -4.40243,-2.77881 -2.10254,-1.2006 -4.14992,-2.50296 -6.33267,-3.55769 -1.4348,-0.73137 -3.01092,-1.13478 -4.36895,-2.02684 -1.49013,-0.89284 -2.88795,-1.94527 -4.48863,-2.64777 -1.95,-0.97012 -3.85075,-2.01242 -5.75836,-3.06136 -2.19057,-0.94538 -4.30387,-2.05579 -6.45204,-3.09089 -1.76641,-0.91543 -3.53968,-1.81782 -5.3486,-2.64618 -1.40158,-0.67355 -2.73646,-1.46963 -4.11846,-2.18159 -1.31092,-0.57671 -2.73158,-0.6663 -4.0585,-1.2037 -1.61168,-0.71699 -3.19508,-1.49979 -4.78201,-2.26954 -1.41133,-0.61677 -2.88994,-1.0808 -4.17284,-1.96472 -1.61099,-0.85873 -3.34969,-1.35297 -5.04754,-2.01377 -3.2158,-1.2474 -6.24774,-2.90975 -9.39393,-4.31776 -3.18644,-1.52564 -6.34498,-3.11817 -9.60377,-4.4858 -2.40575,-1.02478 -4.70064,-2.27428 -7.03078,-3.45773 -2.15876,-1.13739 -4.3307,-2.24846 -6.57897,-3.20027 -1.89489,-0.95856 -3.78245,-1.93215 -5.74627,-2.74534 -1.67391,-0.84476 -3.38841,-1.61571 -4.99999,-2.57826 -1.88777,-1.08064 -3.88244,-1.92813 -5.8616,-2.82297 -2.45978,-1.20653 -4.93716,-2.37678 -7.46805,-3.42755 -3.17223,-1.3068 -6.33344,-2.63922 -9.55882,-3.81206 -3.5379,-1.4628 -7.10901,-2.83702 -10.65855,-4.27109 -2.83565,-1.22812 -5.5345,-2.74042 -8.42074,-3.86009 -3.86114,-1.78445 -7.59121,-3.81264 -11.36914,-5.76199 -3.63488,-1.88912 -7.24228,-3.81994 -10.77019,-5.90351 -2.09317,-1.19671 -4.30828,-2.19959 -6.21606,-3.69726 -1.38756,-0.95203 -2.77913,-1.89656 -4.15663,-2.86295 -1.41564,-1.01092 -2.96858,-1.74004 -4.47006,-2.60813 -1.92664,-1.21423 -3.89422,-2.37072 -6.00149,-3.2485 0,0 9.38006,-6.17175 9.38006,-6.17175 z"
       inkscape:connector-curvature="0" />
    <text
       xml:space="preserve"
       style="font-style:normal;font-variant:normal;font-weight:normal;font-stretch:normal;font-size:17.63888741px;line-height:1.25;font-family:sans-serif;-inkscape-font-specification:'sans-serif, Normal';font-variant-ligatures:normal;font-variant-caps:normal;font-variant-numeric:normal;text-align:start;letter-spacing:0px;word-spacing:0px;writing-mode:lr-tb;text-anchor:start;fill:#000000;fill-opacity:1;stroke:none;stroke-width:0.26458332"
       x="-385.93719"
       y="-458.8382"
       id="text1051"><tspan
         sodipodi:role="line"
         id="tspan1049"
         x="-385.93719"
         y="-458.8382"
         style="stroke-width:0.26458332">textarea?</tspan><tspan
         sodipodi:role="line"
         x="-385.93719"
         y="-436.78958"
         style="stroke-width:0.26458332"
         id="tspan1053" /></text>
    <text
       xml:space="preserve"
       style="font-style:normal;font-variant:normal;font-weight:normal;font-stretch:normal;font-size:17.63888741px;line-height:1.25;font-family:sans-serif;-inkscape-font-specification:'sans-serif, Normal';font-variant-ligatures:normal;font-variant-caps:normal;font-variant-numeric:normal;text-align:start;letter-spacing:0px;word-spacing:0px;writing-mode:lr-tb;text-anchor:start;fill:#000000;fill-opacity:1;stroke:none;stroke-width:0.26458332"
       x="662.82843"
       y="-240.74631"
       id="text1057"><tspan
         sodipodi:role="line"
         x="662.82843"
         y="-240.74631"
         style="stroke-width:0.26458332"
         id="tspan1059">profilecard</tspan></text>
  </g>
</svg>
